<?xml version="1.0" encoding="UTF-8"?>
<!DOCTYPE svg PUBLIC "-//W3C//DTD SVG 1.1//EN" "http://www.w3.org/Graphics/SVG/1.1/DTD/svg11.dtd">
<!-- Creator: CorelDRAW 2017 -->
<svg xmlns="http://www.w3.org/2000/svg" xml:space="preserve" width="69.3941mm" height="60.8008mm" version="1.1" style="shape-rendering:geometricPrecision; text-rendering:geometricPrecision; image-rendering:optimizeQuality; fill-rule:evenodd; clip-rule:evenodd"
viewBox="0 0 6939 6080"
 xmlns:xlink="http://www.w3.org/1999/xlink">
 <defs>
  <style type="text/css">
   <![CDATA[
    .fil0 {fill:#FEFEFE}
   ]]>
  </style>
 </defs>
 <g id="Слой_x0020_1">
  <metadata id="CorelCorpID_0Corel-Layer"/>
  <path class="fil0" d="M0 2397l0 1276c328,556 456,347 1379,382 226,9 272,130 379,238 161,162 1660,1692 1787,1742 475,186 549,-236 547,-619l0 -4727c1,-386 -29,-771 -490,-673 -334,71 -1854,1971 -2156,2003 -153,16 -432,-1 -599,-1 -602,-1 -599,-16 -847,379zm6614 647c0,-927 -517,-1964 -1300,-1994 -19,-351 4,66 -15,-285 906,0 1640,1023 1640,2286 0,1263 -734,2266 -1640,2266 19,-351 -4,66 15,-285 783,-30 1300,-1060 1300,-1987zm-817 -1c0,-636 -355,-1348 -892,-1368 -13,-241 2,45 -11,-196 622,0 1125,702 1125,1568 0,866 -504,1554 -1125,1554 13,-241 -2,45 11,-196 537,-20 892,-727 892,-1363z"/>
 </g>
</svg>
